<svg width="2525" height="1572" viewBox="0 0 2525 1572" fill="none" xmlns="http://www.w3.org/2000/svg">
<path d="M750 348.16C750 226.293 750 165.359 773.717 118.812C794.579 77.8676 827.868 44.579 868.812 23.717C915.359 0 976.293 0 1098.16 0H1425.84C1547.71 0 1608.64 0 1655.19 23.717C1696.13 44.579 1729.42 77.8676 1750.28 118.812C1774 165.359 1774 226.293 1774 348.16V675.84C1774 797.707 1774 858.641 1750.28 905.188C1729.42 946.132 1696.13 979.421 1655.19 1000.28C1608.64 1024 1547.71 1024 1425.84 1024H1098.16C976.293 1024 915.359 1024 868.812 1000.28C827.868 979.421 794.579 946.132 773.717 905.188C750 858.641 750 797.707 750 675.84V348.16Z" fill="#3FE05A"/>
<path fill-rule="evenodd" clip-rule="evenodd" d="M1099.03 818.311C1089.38 828.618 1076.03 835 1061.28 835C1031.88 835 1008 809.611 1008 778.339C1008 747.066 1031.88 721.677 1061.28 721.677C1086.16 721.677 1107.07 739.843 1112.93 764.369C1161.21 774.869 1232.09 767.877 1266.58 755.662C1323.57 735.482 1395.42 702.847 1437.83 635.581C1452.21 612.788 1460.33 590.405 1462.45 570.659C1464.09 555.474 1462.42 542.188 1455.96 533.165C1450.96 526.177 1442.76 523.206 1432.51 523.948C1415.78 525.161 1395.57 534.786 1371.95 553.455C1303.4 607.646 1259.55 677.248 1235.71 695.089C1216.75 709.275 1201.11 706.265 1189.84 696.497C1179.35 687.41 1173.2 672.668 1181.12 649.201C1190.88 620.296 1234.67 554.727 1237.64 428.237C1214.51 424.646 1192.54 415.004 1175.85 396.365C1160.68 379.43 1149.3 354.788 1146.62 318.788C1144.25 287.045 1143.92 250.353 1142.37 209.535C1141.47 185.958 1148.18 169.856 1157.8 158.346C1165.51 149.119 1175.75 142.841 1186.98 138.723C1189.46 136.375 1192.37 134.455 1195.65 133.115C1199.25 131.645 1204.69 130.158 1207.85 129.525C1223.23 126.446 1238.07 137.225 1240.97 153.58C1243.86 169.936 1233.73 185.715 1218.35 188.795C1217.74 188.917 1216.68 189.134 1215.99 189.417C1210.48 191.663 1204.73 191.963 1199.39 190.633C1197.94 191.513 1196.62 192.601 1195.48 193.963C1193.03 196.9 1192.51 201.349 1192.74 207.364C1194.26 247.41 1194.55 283.408 1196.87 314.551C1198.41 335.128 1203.69 349.713 1212.36 359.393C1225.26 373.802 1244.39 376.649 1262.51 376.288C1262.52 376.288 1262.53 376.288 1262.54 376.288C1262.85 376.281 1263.17 376.281 1263.49 376.288C1263.49 376.288 1263.5 376.288 1263.51 376.288C1281.63 376.649 1300.76 373.802 1313.67 359.393C1322.33 349.713 1327.61 335.128 1329.15 314.551C1331.47 283.408 1331.76 247.41 1333.28 207.364C1333.51 201.349 1333 196.9 1330.54 193.963C1329.4 192.601 1328.08 191.513 1326.63 190.633C1321.29 191.963 1315.54 191.663 1310.04 189.417C1309.34 189.134 1308.28 188.917 1307.67 188.795C1292.29 185.715 1282.16 169.936 1285.05 153.58C1287.95 137.225 1302.79 126.446 1318.17 129.525C1321.33 130.158 1326.77 131.645 1330.37 133.115C1333.65 134.455 1336.56 136.375 1339.05 138.723C1350.27 142.841 1360.51 149.119 1368.22 158.346C1377.84 169.856 1384.55 185.958 1383.66 209.535C1382.1 250.353 1381.77 287.045 1379.4 318.788C1376.72 354.788 1365.34 379.43 1350.17 396.365C1333.91 414.52 1312.65 424.14 1290.18 427.945C1288.86 492.473 1277.99 542.683 1265.61 581.186C1286.47 557.575 1311.38 531.759 1340.63 508.638C1415.44 449.497 1471.88 463.194 1497.75 499.348C1522.41 533.81 1523.66 599.736 1481.45 666.683C1432.02 745.064 1349.58 785.13 1283.17 808.645C1241.8 823.297 1156.1 831.556 1099.03 818.311Z" fill="white"/>
<path d="M0 1320.1H242.607V1264.83H0V1320.1ZM88.7948 1357.7V1564.87H153.812V1320.1L88.7948 1357.7Z" fill="white"/>
<path d="M373.844 1458.63C371.392 1460.85 368.271 1462.54 364.482 1463.82C360.692 1465.06 356.68 1466.12 352.407 1467.02C348.134 1467.88 343.602 1468.6 338.809 1469.09C334.016 1469.61 329.372 1470.33 324.877 1471.19C320.084 1471.94 315.663 1473.03 311.576 1474.5C307.527 1475.97 303.849 1477.88 300.579 1480.22C297.31 1482.58 294.746 1485.63 292.851 1489.35C290.994 1493.11 290.028 1497.7 290.028 1503.15C290.028 1508.72 290.994 1513.23 292.851 1516.69C294.746 1520.15 297.384 1522.93 300.802 1525.07C304.22 1527.18 308.084 1528.64 312.468 1529.47C316.815 1530.26 321.385 1530.67 326.177 1530.67C337.769 1530.67 346.76 1528.72 353.039 1524.85C359.354 1520.93 364.036 1516.27 367.082 1510.86C370.129 1505.41 372.024 1499.92 372.767 1494.31C373.472 1488.75 373.844 1484.2 373.844 1480.67V1458.63ZM237.791 1414.57C238.497 1400.47 241.915 1388.81 248.008 1379.52C254.101 1370.27 261.829 1362.87 271.191 1357.3C280.554 1351.7 291.068 1347.75 302.771 1345.38C314.437 1343.05 326.326 1341.89 338.363 1341.89C349.249 1341.89 360.246 1342.64 371.355 1344.18C382.426 1345.72 392.532 1348.73 401.597 1353.2C410.662 1357.68 418.093 1363.96 423.926 1372.04C429.721 1380.13 432.619 1390.62 432.619 1403.55V1516.35C432.619 1526.2 433.214 1535.6 434.366 1544.55C435.517 1553.5 437.486 1560.26 440.236 1564.81H380.383C379.343 1561.43 378.488 1558.01 377.745 1554.47C377.039 1550.94 376.519 1547.4 376.222 1543.91C366.822 1553.57 355.751 1560.49 343.044 1564.59C330.338 1568.72 317.335 1570.75 303.96 1570.75C293.817 1570.75 284.306 1569.44 275.464 1566.81C266.584 1564.17 258.82 1560.15 252.169 1554.81C245.482 1549.44 240.28 1542.67 236.602 1534.55C232.887 1526.39 231.029 1516.72 231.029 1505.56C231.029 1493.22 233.11 1483.03 237.234 1475.06C241.395 1467.06 246.931 1460.7 253.878 1456C260.863 1451.3 268.702 1447.73 277.396 1445.32C286.127 1442.88 294.969 1441 303.96 1439.68C313.099 1438.22 321.868 1437.09 330.19 1436.26C338.549 1435.47 345.942 1434.23 352.407 1432.54C358.872 1430.85 364.036 1428.37 367.974 1425.13C371.875 1421.9 373.844 1417.2 373.844 1411.03C373.844 1404.6 372.804 1399.49 370.686 1395.73C368.568 1392.01 365.819 1389.04 362.401 1386.93C359.02 1384.79 355.008 1383.4 350.438 1382.72C345.868 1382.08 340.89 1381.74 335.54 1381.74C324.208 1381.74 315.18 1384.26 308.418 1389.34C301.694 1394.41 297.793 1402.84 296.79 1414.57H237.791Z" fill="white"/>
<path d="M632.897 1456.43C632.897 1447.18 631.969 1438.38 630.074 1430C628.179 1421.61 625.17 1414.21 621.046 1407.74C616.885 1401.27 611.646 1396.16 605.256 1392.44C598.866 1388.68 591.398 1386.8 582.816 1386.8C573.973 1386.8 566.431 1388.68 560.19 1392.44C553.948 1396.16 548.747 1401.27 544.623 1407.74C540.499 1414.21 537.49 1421.61 535.595 1430C533.7 1438.38 532.771 1447.18 532.771 1456.43C532.771 1465.38 533.7 1474.06 535.595 1482.41C537.49 1490.79 540.499 1498.2 544.623 1504.67C548.747 1511.14 553.948 1516.29 560.19 1520.08C566.431 1523.92 573.973 1525.84 582.816 1525.84C591.398 1525.84 598.866 1523.92 605.256 1520.08C611.646 1516.29 616.885 1511.14 621.046 1504.67C625.17 1498.2 628.179 1490.79 630.074 1482.41C631.969 1474.06 632.897 1465.38 632.897 1456.43ZM475.742 1264.97H534.703V1374.05H535.595C542.691 1362.88 552.388 1354.72 564.648 1349.57C576.908 1344.42 589.8 1341.86 603.287 1341.86C614.024 1341.86 624.612 1344.12 635.089 1348.59C645.529 1353.07 655.003 1359.91 663.474 1369.09C671.982 1378.26 678.818 1390.07 684.057 1404.54C689.295 1419.02 691.896 1436.24 691.896 1456.2C691.896 1476.02 689.295 1493.16 684.057 1507.53C678.818 1521.93 671.982 1533.85 663.474 1543.25C655.003 1552.65 645.529 1559.56 635.089 1564.04C624.612 1568.51 614.024 1570.77 603.287 1570.77C587.46 1570.77 573.305 1568.17 560.859 1562.95C548.375 1557.72 539.013 1549.11 532.771 1537.08H531.657V1564.83H475.742V1264.97Z" fill="white"/>
<path d="M727.375 1347.59H786.373V1564.8H727.375V1347.59ZM786.373 1313.9H727.375V1264.98H786.373V1313.9Z" fill="white"/>
<path d="M986.03 1482.53C984.172 1490.8 981.2 1498.32 977.113 1504.72C973.027 1511.11 967.825 1516.37 961.509 1520.13C954.822 1523.89 947.391 1525.77 938.846 1525.77C930.301 1525.77 922.499 1523.89 916.183 1520.13C910.239 1516.37 905.037 1511.11 900.951 1504.72C896.492 1498.32 893.52 1490.8 891.662 1482.53C889.805 1473.88 889.062 1465.24 889.062 1456.59C889.062 1447.19 889.805 1438.54 891.662 1429.89C893.52 1421.62 896.492 1414.1 900.951 1407.71C905.037 1401.32 910.239 1396.05 916.183 1392.29C922.499 1388.53 930.301 1386.65 938.846 1386.65C947.391 1386.65 954.822 1388.53 961.509 1392.29C967.825 1396.05 973.027 1401.32 977.113 1407.71C981.2 1414.1 984.172 1421.62 986.03 1429.89C988.259 1438.54 989.002 1447.19 989.002 1456.59C989.002 1465.24 988.259 1473.88 986.03 1482.53ZM1040.27 1404.7C1035.07 1390.04 1028.01 1378.38 1019.47 1368.98C1011.29 1359.96 1001.63 1353.19 991.231 1348.68C980.829 1344.17 970.054 1341.91 959.28 1341.91C945.905 1341.91 932.902 1344.54 920.641 1349.43C908.381 1354.7 898.721 1362.97 891.662 1373.87H890.919V1264.83H831.847V1564.88L887.947 1532.54L889.062 1537.05C891.662 1542.32 894.635 1546.83 899.093 1550.59C903.551 1555.85 909.867 1559.99 916.926 1563C929.558 1568.26 943.676 1570.89 959.28 1570.89C970.054 1570.89 980.829 1568.63 991.231 1564.12C1001.63 1559.61 1011.29 1552.47 1019.47 1543.07C1028.01 1533.67 1035.07 1522.01 1040.27 1507.72C1045.47 1493.06 1048.07 1476.14 1048.07 1456.21C1048.07 1436.29 1045.47 1418.99 1040.27 1404.7Z" fill="white"/>
<path d="M1177.04 1261H1209.36L1386.13 1517.8H1387.02V1261H1415.78V1564.65H1383.68L1206.68 1307.63H1206.02V1564.65H1177.04V1261Z" fill="white"/>
<path d="M1637.58 1564.65H1612.83V1525.16H1611.94C1604.96 1539.89 1594.7 1551.27 1581.18 1559.3C1567.81 1567.18 1552.87 1571.12 1536.37 1571.12C1522.55 1571.12 1510.74 1569.19 1500.93 1565.32C1491.12 1561.46 1483.17 1555.95 1477.08 1548.81C1470.99 1541.52 1466.53 1532.75 1463.7 1522.49C1460.88 1512.07 1459.47 1500.47 1459.47 1487.68V1345.11H1486.22V1488.13C1486.81 1507.91 1491.42 1522.93 1500.04 1533.19C1508.66 1543.46 1523.59 1548.59 1544.85 1548.59C1556.14 1548.59 1565.95 1546.14 1574.27 1541.23C1582.74 1536.17 1589.65 1529.55 1595 1521.37C1600.35 1513.04 1604.29 1503.6 1606.82 1493.03C1609.49 1482.33 1610.83 1471.47 1610.83 1460.46V1345.11H1637.58V1564.65Z" fill="white"/>
<path d="M1818.58 1409.37C1818.29 1401.19 1816.58 1394.05 1813.46 1387.95C1810.49 1381.85 1806.32 1376.79 1800.97 1372.78C1795.77 1368.76 1789.75 1365.86 1782.92 1364.08C1776.08 1362.29 1768.87 1361.4 1761.3 1361.4C1755.35 1361.4 1749.33 1362.07 1743.24 1363.41C1737.15 1364.6 1731.5 1366.68 1726.3 1369.65C1721.25 1372.63 1717.16 1376.57 1714.04 1381.48C1710.92 1386.24 1709.36 1392.11 1709.36 1399.11C1709.36 1405.06 1710.84 1410.11 1713.81 1414.28C1716.79 1418.44 1720.5 1421.94 1724.96 1424.76C1729.57 1427.59 1734.55 1429.97 1739.9 1431.9C1745.39 1433.69 1750.37 1435.1 1754.83 1436.14L1790.72 1444.17C1798.3 1445.36 1805.8 1447.45 1813.23 1450.42C1820.81 1453.4 1827.5 1457.34 1833.3 1462.25C1839.09 1467.01 1843.85 1472.95 1847.56 1480.09C1851.28 1487.09 1853.14 1495.41 1853.14 1505.08C1853.14 1516.98 1850.39 1527.17 1844.89 1535.65C1839.54 1543.98 1832.7 1550.75 1824.38 1555.95C1816.06 1561.16 1806.62 1564.95 1796.07 1567.33C1785.67 1569.86 1775.34 1571.12 1765.08 1571.12C1739.38 1571.12 1718.5 1564.95 1702.45 1552.61C1686.4 1540.26 1677.26 1520.63 1675.03 1493.7H1701.78C1702.97 1511.85 1709.58 1525.53 1721.62 1534.76C1733.65 1543.98 1748.59 1548.59 1766.42 1548.59C1772.66 1548.59 1779.28 1547.85 1786.26 1546.36C1793.4 1544.87 1799.93 1542.49 1805.88 1539.22C1811.82 1535.8 1816.73 1531.48 1820.59 1526.28C1824.45 1520.92 1826.39 1514.45 1826.39 1506.87C1826.39 1500.62 1824.97 1495.27 1822.15 1490.8C1819.48 1486.19 1815.84 1482.4 1811.23 1479.43C1806.77 1476.45 1801.64 1474 1795.85 1472.06C1790.05 1469.98 1784.18 1468.27 1778.24 1466.93L1743.91 1459.12C1735.14 1456.89 1727.04 1454.29 1719.61 1451.31C1712.33 1448.34 1705.86 1444.69 1700.22 1440.38C1694.72 1435.92 1690.41 1430.49 1687.29 1424.09C1684.17 1417.7 1682.61 1409.81 1682.61 1400.44C1682.61 1389.44 1685.06 1379.99 1689.96 1372.11C1695.02 1364.08 1701.48 1357.68 1709.36 1352.92C1717.38 1348.01 1726.22 1344.44 1735.88 1342.21C1745.69 1339.98 1755.43 1338.87 1765.08 1338.87C1776.23 1338.87 1786.48 1340.28 1795.85 1343.1C1805.36 1345.93 1813.68 1350.32 1820.81 1356.27C1828.1 1362.22 1833.89 1369.58 1838.2 1378.36C1842.51 1387.13 1844.96 1397.47 1845.56 1409.37H1818.58Z" fill="white"/>
<path d="M1890.59 1261H1917.34V1451.54L2038.82 1345.11H2074.71L1981.09 1426.32L2080.95 1564.65H2047.29L1960.8 1445.07L1917.34 1481.21V1564.65H1890.59V1261Z" fill="white"/>
<path d="M2105.92 1261H2132.67V1383.04H2133.56C2136.09 1376.5 2139.66 1370.47 2144.26 1364.97C2149.02 1359.47 2154.52 1354.78 2160.76 1350.91C2167 1347.05 2173.76 1344.07 2181.04 1341.99C2188.47 1339.91 2195.98 1338.87 2203.56 1338.87C2218.86 1338.87 2231.72 1340.87 2242.12 1344.89C2252.52 1348.76 2260.85 1354.33 2267.09 1361.62C2273.33 1368.76 2277.71 1377.61 2280.24 1388.17C2282.77 1398.58 2284.03 1410.34 2284.03 1423.42V1564.65H2257.28V1427.66C2257.28 1418.29 2256.39 1409.59 2254.6 1401.56C2252.97 1393.53 2250 1386.54 2245.69 1380.59C2241.53 1374.49 2235.81 1369.8 2228.52 1366.53C2221.24 1363.11 2212.25 1361.4 2201.55 1361.4C2190.85 1361.4 2181.27 1363.33 2172.8 1367.2C2164.47 1370.92 2157.34 1376.13 2151.4 1382.82C2145.45 1389.51 2140.92 1397.47 2137.8 1406.69C2134.68 1415.91 2132.97 1425.88 2132.67 1436.59V1564.65H2105.92V1261Z" fill="white"/>
<path d="M2474.18 1444.62H2473.28C2471.5 1447.74 2468.16 1450.05 2463.25 1451.54C2458.5 1452.88 2454.34 1453.84 2450.77 1454.44C2439.33 1456.52 2427.59 1458.38 2415.55 1460.01C2403.51 1461.5 2392.51 1463.81 2382.56 1466.93C2372.75 1469.91 2364.65 1474.37 2358.26 1480.32C2351.87 1486.12 2348.67 1494.37 2348.67 1505.08C2348.67 1511.92 2350.01 1517.95 2352.69 1523.15C2355.36 1528.36 2358.93 1532.9 2363.39 1536.76C2367.99 1540.63 2373.27 1543.61 2379.21 1545.69C2385.16 1547.62 2391.25 1548.59 2397.49 1548.59C2407.75 1548.59 2417.56 1547.03 2426.92 1543.9C2436.28 1540.78 2444.38 1536.24 2451.22 1530.29C2458.2 1524.34 2463.77 1517.13 2467.93 1508.65C2472.1 1500.03 2474.18 1490.36 2474.18 1479.65V1444.62ZM2331.29 1412.27C2332.62 1386.54 2341.47 1367.87 2357.81 1356.27C2374.16 1344.67 2394.89 1338.87 2420.01 1338.87C2429.67 1338.87 2439.33 1339.76 2448.99 1341.54C2458.65 1343.33 2467.27 1346.82 2474.84 1352.03C2482.57 1357.09 2488.81 1364.23 2493.57 1373.45C2498.47 1382.67 2500.93 1394.64 2500.93 1409.37V1526.06C2500.93 1536.76 2506.13 1542.12 2516.53 1542.12C2519.35 1542.12 2522.18 1541.52 2525 1540.33V1562.87C2521.88 1563.46 2519.13 1563.91 2516.75 1564.21C2514.37 1564.5 2511.33 1564.65 2507.61 1564.65C2500.78 1564.65 2495.28 1563.76 2491.12 1561.98C2487.1 1560.04 2483.98 1557.37 2481.75 1553.94C2479.53 1550.52 2478.04 1546.51 2477.3 1541.9C2476.55 1537.29 2476.18 1532.08 2476.18 1526.28H2475.29C2470.53 1533.42 2465.63 1539.74 2460.58 1545.24C2455.67 1550.75 2450.18 1555.43 2444.08 1559.3C2437.99 1563.17 2430.93 1566.07 2422.91 1568C2415.03 1570.08 2405.89 1571.12 2395.49 1571.12C2385.23 1571.12 2375.65 1569.78 2366.73 1567.11C2357.81 1564.58 2350.01 1560.71 2343.32 1555.51C2336.64 1550.3 2331.36 1543.68 2327.5 1535.65C2323.78 1527.47 2321.93 1517.87 2321.93 1506.87C2321.93 1491.55 2325.34 1479.57 2332.18 1470.95C2339.02 1462.17 2348.01 1455.55 2359.15 1451.09C2370.3 1446.48 2382.85 1443.28 2396.82 1441.5C2410.94 1439.71 2425.21 1437.93 2439.62 1436.14C2444.97 1435.55 2449.8 1434.8 2454.11 1433.91C2458.57 1432.87 2462.21 1431.38 2465.04 1429.45C2468.01 1427.37 2470.24 1424.54 2471.72 1420.97C2473.36 1417.25 2474.18 1412.42 2474.18 1406.47C2474.18 1397.39 2472.62 1389.96 2469.49 1384.16C2466.52 1378.36 2462.44 1373.75 2457.23 1370.32C2452.03 1366.9 2445.94 1364.6 2438.96 1363.41C2432.12 1362.07 2424.69 1361.4 2416.66 1361.4C2400.02 1361.4 2386.2 1365.42 2375.2 1373.45C2364.35 1381.48 2358.63 1394.42 2358.04 1412.27H2331.29Z" fill="white"/>
</svg>
