<svg width="3351" height="546" viewBox="0 0 3351 546" fill="none" xmlns="http://www.w3.org/2000/svg">
<path d="M0 185.64C0 120.66 0 88.1699 12.646 63.3507C23.7697 41.5192 41.5192 23.7697 63.3507 12.646C88.1699 0 120.66 0 185.64 0H360.36C425.34 0 457.83 0 482.649 12.646C504.481 23.7697 522.23 41.5192 533.354 63.3507C546 88.1699 546 120.66 546 185.64V360.36C546 425.34 546 457.83 533.354 482.649C522.23 504.481 504.481 522.23 482.649 533.354C457.83 546 425.34 546 360.36 546H185.64C120.66 546 88.1699 546 63.3507 533.354C41.5192 522.23 23.7697 504.481 12.646 482.649C0 457.83 0 425.34 0 360.36V185.64Z" fill="#3FE05A"/>
<path fill-rule="evenodd" clip-rule="evenodd" d="M186.105 436.326C180.959 441.822 173.839 445.225 165.977 445.225C150.297 445.225 137.566 431.687 137.566 415.013C137.566 398.338 150.297 384.801 165.977 384.801C179.24 384.801 190.393 394.486 193.516 407.564C219.259 413.162 257.053 409.434 275.443 402.922C305.828 392.161 344.137 374.76 366.755 338.894C374.418 326.741 378.748 314.806 379.882 304.277C380.755 296.18 379.864 289.096 376.421 284.285C373.755 280.559 369.38 278.975 363.918 279.371C354.998 280.018 344.221 285.149 331.628 295.104C295.077 323.999 271.692 361.111 258.98 370.624C248.872 378.188 240.531 376.583 234.523 371.375C228.933 366.529 225.649 358.669 229.874 346.156C235.078 330.744 258.429 295.782 260.012 228.337C247.677 226.423 235.965 221.281 227.064 211.343C218.978 202.313 212.909 189.174 211.478 169.979C210.216 153.053 210.04 133.489 209.211 111.725C208.732 99.1536 212.311 90.5676 217.442 84.4304C221.554 79.511 227.01 76.1631 232.997 73.9675C234.32 72.7158 235.874 71.6919 237.623 70.9772C239.543 70.1935 242.444 69.4008 244.129 69.0632C252.33 67.4213 260.242 73.1686 261.786 81.8895C263.33 90.6105 257.925 99.0238 249.724 100.666C249.401 100.731 248.834 100.847 248.465 100.998C245.532 102.195 242.462 102.355 239.615 101.646C238.842 102.115 238.139 102.696 237.532 103.422C236.223 104.987 235.947 107.36 236.069 110.567C236.883 131.92 237.036 151.114 238.274 167.719C239.092 178.691 241.907 186.468 246.529 191.629C253.41 199.312 263.611 200.83 273.272 200.638C273.277 200.638 273.281 200.638 273.286 200.638C273.454 200.634 273.624 200.634 273.792 200.638C273.797 200.638 273.801 200.638 273.806 200.638C283.467 200.83 293.668 199.312 300.549 191.629C305.171 186.468 307.986 178.691 308.804 167.719C310.042 151.114 310.195 131.92 311.009 110.567C311.131 107.36 310.855 104.987 309.546 103.422C308.939 102.696 308.236 102.115 307.463 101.646C304.615 102.355 301.546 102.195 298.613 100.998C298.244 100.847 297.677 100.731 297.354 100.666C289.153 99.0238 283.748 90.6105 285.292 81.8895C286.836 73.1686 294.748 67.4213 302.949 69.0632C304.634 69.4008 307.535 70.1935 309.455 70.9772C311.204 71.6919 312.758 72.7158 314.081 73.9675C320.068 76.1631 325.524 79.511 329.636 84.4304C334.767 90.5676 338.346 99.1536 337.867 111.725C337.038 133.489 336.862 153.053 335.6 169.979C334.169 189.174 328.1 202.313 320.014 211.343C311.344 221.023 300.007 226.153 288.026 228.182C287.321 262.588 281.526 289.36 274.922 309.89C286.049 297.301 299.328 283.536 314.923 271.207C354.814 239.673 384.909 246.976 398.703 266.254C411.853 284.629 412.521 319.781 390.01 355.477C363.656 397.271 319.696 418.634 284.29 431.172C262.23 438.985 216.534 443.388 186.105 436.326Z" fill="white"/>
<path d="M826 177.104H1068.61V121.833H826V177.104ZM914.795 214.703V421.875H979.812V177.104L914.795 214.703Z" fill="#1A1A1A"/>
<path d="M1199.84 315.633C1197.39 317.851 1194.27 319.543 1190.48 320.822C1186.69 322.063 1182.68 323.115 1178.41 324.018C1174.13 324.882 1169.6 325.597 1164.81 326.086C1160.02 326.612 1155.37 327.326 1150.88 328.191C1146.08 328.943 1141.66 330.034 1137.58 331.5C1133.53 332.966 1129.85 334.884 1126.58 337.215C1123.31 339.584 1120.75 342.629 1118.85 346.352C1116.99 350.112 1116.03 354.699 1116.03 360.151C1116.03 365.715 1116.99 370.227 1118.85 373.686C1120.75 377.145 1123.38 379.928 1126.8 382.071C1130.22 384.176 1134.08 385.643 1138.47 386.47C1142.81 387.26 1147.38 387.673 1152.18 387.673C1163.77 387.673 1172.76 385.718 1179.04 381.845C1185.35 377.935 1190.04 373.273 1193.08 367.858C1196.13 362.407 1198.02 356.917 1198.77 351.315C1199.47 345.75 1199.84 341.201 1199.84 337.666V315.633ZM1063.79 271.567C1064.5 257.467 1067.92 245.811 1074.01 236.524C1080.1 227.275 1087.83 219.868 1097.19 214.303C1106.55 208.701 1117.07 204.753 1128.77 202.384C1140.44 200.053 1152.33 198.887 1164.36 198.887C1175.25 198.887 1186.25 199.639 1197.35 201.181C1208.43 202.722 1218.53 205.73 1227.6 210.205C1236.66 214.679 1244.09 220.958 1249.93 229.042C1255.72 237.126 1258.62 247.616 1258.62 260.55V373.348C1258.62 383.199 1259.21 392.599 1260.37 401.547C1261.52 410.496 1263.49 417.264 1266.24 421.813H1206.38C1205.34 418.429 1204.49 415.008 1203.75 411.474C1203.04 407.939 1202.52 404.405 1202.22 400.908C1192.82 410.571 1181.75 417.489 1169.04 421.588C1156.34 425.724 1143.33 427.754 1129.96 427.754C1119.82 427.754 1110.31 426.438 1101.46 423.806C1092.58 421.174 1084.82 417.151 1078.17 411.812C1071.48 406.435 1066.28 399.667 1062.6 391.546C1058.89 383.387 1057.03 373.724 1057.03 362.557C1057.03 350.224 1059.11 340.035 1063.23 332.064C1067.4 324.055 1072.93 317.701 1079.88 313.001C1086.86 308.301 1094.7 304.729 1103.4 302.323C1112.13 299.879 1120.97 297.999 1129.96 296.683C1139.1 295.217 1147.87 294.089 1156.19 293.261C1164.55 292.472 1171.94 291.231 1178.41 289.539C1184.87 287.847 1190.04 285.366 1193.97 282.132C1197.87 278.899 1199.84 274.199 1199.84 268.032C1199.84 261.603 1198.8 256.489 1196.69 252.729C1194.57 249.007 1191.82 246.037 1188.4 243.931C1185.02 241.788 1181.01 240.397 1176.44 239.72C1171.87 239.081 1166.89 238.743 1161.54 238.743C1150.21 238.743 1141.18 241.262 1134.42 246.338C1127.69 251.414 1123.79 259.836 1122.79 271.567H1063.79Z" fill="#1A1A1A"/>
<path d="M1458.9 313.429C1458.9 304.18 1457.97 295.382 1456.07 286.997C1454.18 278.612 1451.17 271.205 1447.05 264.738C1442.88 258.271 1437.65 253.158 1431.26 249.435C1424.87 245.675 1417.4 243.795 1408.82 243.795C1399.97 243.795 1392.43 245.675 1386.19 249.435C1379.95 253.158 1374.75 258.271 1370.62 264.738C1366.5 271.205 1363.49 278.612 1361.59 286.997C1359.7 295.382 1358.77 304.18 1358.77 313.429C1358.77 322.378 1359.7 331.063 1361.59 339.41C1363.49 347.795 1366.5 355.202 1370.62 361.669C1374.75 368.136 1379.95 373.287 1386.19 377.085C1392.43 380.92 1399.97 382.837 1408.82 382.837C1417.4 382.837 1424.87 380.92 1431.26 377.085C1437.65 373.287 1442.88 368.136 1447.05 361.669C1451.17 355.202 1454.18 347.795 1456.07 339.41C1457.97 331.063 1458.9 322.378 1458.9 313.429ZM1301.74 121.974H1360.7V231.049H1361.59C1368.69 219.882 1378.39 211.723 1390.65 206.572C1402.91 201.421 1415.8 198.864 1429.29 198.864C1440.02 198.864 1450.61 201.12 1461.09 205.594C1471.53 210.069 1481 216.912 1489.47 226.086C1497.98 235.26 1504.82 247.066 1510.06 261.542C1515.3 276.018 1517.9 293.238 1517.9 313.204C1517.9 333.018 1515.3 350.164 1510.06 364.527C1504.82 378.927 1497.98 390.846 1489.47 400.246C1481 409.646 1471.53 416.564 1461.09 421.038C1450.61 425.513 1440.02 427.768 1429.29 427.768C1413.46 427.768 1399.3 425.174 1386.86 419.948C1374.38 414.722 1365.01 406.111 1358.77 394.08H1357.66V421.828H1301.74V121.974Z" fill="#1A1A1A"/>
<path d="M1553.38 204.589H1612.37V421.8H1553.38V204.589ZM1612.37 170.9H1553.38V121.983H1612.37V170.9Z" fill="#1A1A1A"/>
<path d="M1812.03 339.533C1810.17 347.804 1807.2 355.324 1803.11 361.716C1799.03 368.108 1793.83 373.372 1787.51 377.132C1780.82 380.892 1773.39 382.772 1764.85 382.772C1756.3 382.772 1748.5 380.892 1742.18 377.132C1736.24 373.372 1731.04 368.108 1726.95 361.716C1722.49 355.324 1719.52 347.804 1717.66 339.533C1715.8 330.885 1715.06 322.237 1715.06 313.589C1715.06 304.189 1715.8 295.542 1717.66 286.894C1719.52 278.622 1722.49 271.102 1726.95 264.71C1731.04 258.318 1736.24 253.054 1742.18 249.294C1748.5 245.535 1756.3 243.655 1764.85 243.655C1773.39 243.655 1780.82 245.535 1787.51 249.294C1793.83 253.054 1799.03 258.318 1803.11 264.71C1807.2 271.102 1810.17 278.622 1812.03 286.894C1814.26 295.542 1815 304.189 1815 313.589C1815 322.237 1814.26 330.885 1812.03 339.533ZM1866.27 261.702C1861.07 247.038 1854.01 235.383 1845.47 225.983C1837.29 216.959 1827.63 210.191 1817.23 205.679C1806.83 201.167 1796.05 198.911 1785.28 198.911C1771.91 198.911 1758.9 201.543 1746.64 206.431C1734.38 211.695 1724.72 219.967 1717.66 230.871H1716.92V121.833H1657.85V421.875L1713.95 389.54L1715.06 394.052C1717.66 399.315 1720.63 403.827 1725.09 407.587C1729.55 412.851 1735.87 416.987 1742.93 419.995C1755.56 425.259 1769.68 427.891 1785.28 427.891C1796.05 427.891 1806.83 425.635 1817.23 421.123C1827.63 416.611 1837.29 409.467 1845.47 400.067C1854.01 390.668 1861.07 379.012 1866.27 364.724C1871.47 350.06 1874.07 333.141 1874.07 313.213C1874.07 293.286 1871.47 275.99 1866.27 261.702Z" fill="#1A1A1A"/>
<path d="M2003.04 118H2035.36L2212.13 374.8H2213.02V118H2241.78V421.653H2209.68L2032.68 164.63H2032.02V421.653H2003.04V118Z" fill="#1A1A1A"/>
<path d="M2463.58 421.653H2438.83V382.163H2437.94C2430.96 396.888 2420.7 408.267 2407.18 416.299C2393.81 424.182 2378.87 428.124 2362.38 428.124C2348.55 428.124 2336.74 426.19 2326.93 422.323C2317.12 418.455 2309.17 412.952 2303.08 405.813C2296.99 398.524 2292.53 389.749 2289.7 379.486C2286.88 369.074 2285.47 357.472 2285.47 344.68V202.113H2312.22V345.127C2312.81 364.909 2317.42 379.932 2326.04 390.195C2334.66 400.458 2349.59 405.589 2370.85 405.589C2382.14 405.589 2391.95 403.135 2400.27 398.227C2408.74 393.17 2415.65 386.551 2421 378.37C2426.35 370.041 2430.29 360.596 2432.82 350.035C2435.49 339.326 2436.83 328.468 2436.83 317.461V202.113H2463.58V421.653Z" fill="#1A1A1A"/>
<path d="M2644.58 266.368C2644.29 258.188 2642.58 251.048 2639.46 244.95C2636.49 238.852 2632.32 233.794 2626.97 229.778C2621.77 225.762 2615.75 222.862 2608.92 221.077C2602.08 219.292 2594.87 218.4 2587.3 218.4C2581.35 218.4 2575.33 219.069 2569.24 220.408C2563.15 221.598 2557.5 223.68 2552.3 226.655C2547.25 229.63 2543.16 233.571 2540.04 238.48C2536.92 243.239 2535.36 249.115 2535.36 256.105C2535.36 262.055 2536.84 267.112 2539.81 271.277C2542.79 275.442 2546.5 278.937 2550.96 281.763C2555.57 284.589 2560.55 286.969 2565.9 288.903C2571.39 290.688 2576.37 292.101 2580.83 293.142L2616.72 301.174C2624.3 302.364 2631.8 304.446 2639.23 307.421C2646.81 310.396 2653.5 314.337 2659.3 319.246C2665.09 324.005 2669.85 329.955 2673.56 337.095C2677.28 344.085 2679.14 352.415 2679.14 362.083C2679.14 373.982 2676.39 384.171 2670.89 392.649C2665.54 400.979 2658.7 407.746 2650.38 412.952C2642.06 418.158 2632.62 421.951 2622.07 424.331C2611.67 426.859 2601.34 428.124 2591.09 428.124C2565.38 428.124 2544.5 421.951 2528.45 409.605C2512.4 397.26 2503.26 377.626 2501.03 350.704H2527.78C2528.97 368.851 2535.58 382.535 2547.62 391.757C2559.65 400.979 2574.59 405.589 2592.42 405.589C2598.66 405.589 2605.28 404.846 2612.26 403.358C2619.4 401.871 2625.93 399.491 2631.88 396.219C2637.82 392.798 2642.73 388.484 2646.59 383.278C2650.45 377.924 2652.39 371.454 2652.39 363.868C2652.39 357.621 2650.97 352.266 2648.15 347.804C2645.48 343.193 2641.84 339.4 2637.23 336.425C2632.77 333.45 2627.64 330.996 2621.85 329.063C2616.05 326.98 2610.18 325.27 2604.24 323.931L2569.91 316.122C2561.14 313.891 2553.04 311.288 2545.61 308.313C2538.33 305.338 2531.86 301.694 2526.22 297.381C2520.72 292.919 2516.41 287.49 2513.29 281.094C2510.17 274.698 2508.61 266.815 2508.61 257.444C2508.61 246.437 2511.06 236.992 2515.96 229.109C2521.02 221.077 2527.48 214.681 2535.36 209.922C2543.38 205.013 2552.22 201.443 2561.88 199.212C2571.69 196.981 2581.43 195.866 2591.09 195.866C2602.23 195.866 2612.48 197.279 2621.85 200.105C2631.36 202.931 2639.68 207.319 2646.81 213.268C2654.1 219.218 2659.89 226.58 2664.2 235.356C2668.51 244.132 2670.96 254.469 2671.56 266.368H2644.58Z" fill="#1A1A1A"/>
<path d="M2716.59 118H2743.34V308.536L2864.82 202.113H2900.71L2807.09 283.325L2906.95 421.653H2873.29L2786.8 302.066L2743.34 338.21V421.653H2716.59V118Z" fill="#1A1A1A"/>
<path d="M2931.92 118H2958.67V240.041H2959.56C2962.09 233.497 2965.66 227.473 2970.26 221.97C2975.02 216.466 2980.52 211.781 2986.76 207.914C2993 204.046 2999.76 201.071 3007.04 198.989C3014.47 196.907 3021.98 195.866 3029.56 195.866C3044.86 195.866 3057.72 197.874 3068.12 201.89C3078.52 205.757 3086.85 211.335 3093.09 218.623C3099.33 225.762 3103.71 234.612 3106.24 245.173C3108.77 255.585 3110.03 267.335 3110.03 280.424V421.653H3083.28V284.664C3083.28 275.293 3082.39 266.592 3080.61 258.56C3078.97 250.528 3076 243.537 3071.69 237.587C3067.53 231.489 3061.81 226.804 3054.52 223.531C3047.24 220.11 3038.25 218.4 3027.55 218.4C3016.85 218.4 3007.27 220.333 2998.8 224.201C2990.47 227.919 2983.34 233.125 2977.4 239.818C2971.45 246.512 2966.92 254.469 2963.8 263.691C2960.68 272.913 2958.97 282.879 2958.67 293.588V421.653H2931.92V118Z" fill="#1A1A1A"/>
<path d="M3300.18 301.62H3299.28C3297.5 304.744 3294.16 307.049 3289.25 308.536C3284.5 309.875 3280.34 310.842 3276.77 311.437C3265.33 313.519 3253.59 315.378 3241.55 317.015C3229.51 318.502 3218.51 320.807 3208.56 323.931C3198.75 326.906 3190.65 331.368 3184.26 337.318C3177.87 343.119 3174.68 351.374 3174.68 362.083C3174.68 368.925 3176.01 374.949 3178.69 380.155C3181.36 385.361 3184.93 389.897 3189.39 393.765C3193.99 397.632 3199.27 400.607 3205.21 402.689C3211.16 404.623 3217.25 405.589 3223.49 405.589C3233.75 405.589 3243.56 404.028 3252.92 400.904C3262.28 397.781 3270.38 393.244 3277.22 387.294C3284.2 381.345 3289.77 374.131 3293.93 365.653C3298.1 357.026 3300.18 347.358 3300.18 336.648V301.62ZM3157.29 269.269C3158.63 243.537 3167.47 224.87 3183.81 213.268C3200.16 201.666 3220.89 195.866 3246.01 195.866C3255.67 195.866 3265.33 196.758 3274.99 198.543C3284.65 200.328 3293.27 203.823 3300.84 209.029C3308.57 214.086 3314.81 221.226 3319.57 230.448C3324.47 239.67 3326.93 251.643 3326.93 266.368V383.055C3326.93 393.765 3332.13 399.119 3342.53 399.119C3345.35 399.119 3348.18 398.524 3351 397.334V419.869C3347.88 420.463 3345.13 420.91 3342.75 421.207C3340.37 421.505 3337.33 421.653 3333.61 421.653C3326.78 421.653 3321.28 420.761 3317.12 418.976C3313.1 417.042 3309.98 414.365 3307.75 410.944C3305.53 407.523 3304.04 403.507 3303.3 398.896C3302.55 394.285 3302.18 389.079 3302.18 383.278H3301.29C3296.53 390.418 3291.63 396.739 3286.58 402.243C3281.67 407.746 3276.18 412.432 3270.08 416.299C3263.99 420.166 3256.93 423.066 3248.91 425C3241.03 427.082 3231.89 428.124 3221.49 428.124C3211.23 428.124 3201.65 426.785 3192.73 424.108C3183.81 421.579 3176.01 417.712 3169.33 412.506C3162.64 407.3 3157.36 400.681 3153.5 392.649C3149.78 384.468 3147.93 374.875 3147.93 363.868C3147.93 348.548 3151.34 336.574 3158.18 327.947C3165.02 319.171 3174.01 312.552 3185.15 308.09C3196.3 303.479 3208.86 300.281 3222.82 298.496C3236.94 296.712 3251.21 294.927 3265.62 293.142C3270.97 292.547 3275.8 291.803 3280.11 290.911C3284.57 289.869 3288.21 288.382 3291.04 286.448C3294.01 284.366 3296.24 281.54 3297.72 277.97C3299.36 274.252 3300.18 269.418 3300.18 263.468C3300.18 254.395 3298.62 246.958 3295.49 241.157C3292.52 235.356 3288.44 230.745 3283.23 227.324C3278.03 223.903 3271.94 221.598 3264.96 220.408C3258.12 219.069 3250.69 218.4 3242.66 218.4C3226.02 218.4 3212.2 222.416 3201.2 230.448C3190.35 238.48 3184.63 251.42 3184.04 269.269H3157.29Z" fill="#1A1A1A"/>
</svg>
